PathFileType	4	(X/Y/Z)	..\data\2014019\dynamic\2014019_C4_05.trc
DataRate	CameraRate	NumFrames	NumMarkers	Units	OrigDataRate	OrigDataStartFrame	OrigNumFrames
100.000000	100.000000	4	52	mm	100.000000	86	172
Frame#	Time	L_IAS			L_IPS			R_IPS			R_IAS			L_FTC			L_FLE			L_FME			L_FAX			L_TTC			L_FAL			L_TAM			L_FCC			L_FM1			L_FM2			L_FM5			R_FTC			R_FLE			R_FME			R_FAX			R_TTC			R_FAL			R_TAM			R_FCC			R_FM1			R_FM2			R_FM5			CV7			TV10			SXS			SJN			L_SIA			L_SRS			L_SAA			L_SAE			L_HLE			L_HME			L_UOA			L_RSP			L_UHE			L_HM2			L_HM5			R_SIA			R_SRS			R_SAA			R_SAE			R_HLE			R_HME			R_UOA			R_RSP			R_UHE			R_HM2			R_HM5			
		X1	Y1	Z1	X2	Y2	Z2	X3	Y3	Z3	X4	Y4	Z4	X5	Y5	Z5	X6	Y6	Z6	X7	Y7	Z7	X8	Y8	Z8	X9	Y9	Z9	X10	Y10	Z10	X11	Y11	Z11	X12	Y12	Z12	X13	Y13	Z13	X14	Y14	Z14	X15	Y15	Z15	X16	Y16	Z16	X17	Y17	Z17	X18	Y18	Z18	X19	Y19	Z19	X20	Y20	Z20	X21	Y21	Z21	X22	Y22	Z22	X23	Y23	Z23	X24	Y24	Z24	X25	Y25	Z25	X26	Y26	Z26	X27	Y27	Z27	X28	Y28	Z28	X29	Y29	Z29	X30	Y30	Z30	X31	Y31	Z31	X32	Y32	Z32	X33	Y33	Z33	X34	Y34	Z34	X35	Y35	Z35	X36	Y36	Z36	X37	Y37	Z37	X38	Y38	Z38	X39	Y39	Z39	X40	Y40	Z40	X41	Y41	Z41	X42	Y42	Z42	X43	Y43	Z43	X44	Y44	Z44	X45	Y45	Z45	X46	Y46	Z46	X47	Y47	Z47	X48	Y48	Z48	X49	Y49	Z49	X50	Y50	Z50	X51	Y51	Z51	X52	Y52	Z52	

87	0.86	-168.7508239746094	939.9111328125002	123.719970703125	-369.7885437011719	996.9058227539065	214.1364440917969	-366.3773803710939	995.9562988281252	310.6183166503906	-154.2468261718751	952.9939575195315	357.2675170898438	-257.0354003906251	873.771911621094	51.90184020996092	-129.683837890625	484.0408630371095	76.71645355224609	-118.623634338379	461.6392211914064	211.7202758789063	-172.9682922363282	444.852996826172	76.45989227294922	-123.860595703125	400.348846435547	115.3657684326172	-417.3572998046876	203.6405029296876	122.609992980957	-360.5093383789063	187.1178283691407	199.5581817626953	-466.5172424316407	188.4926300048828	176.6036529541015	-325.5149536132813	64.79991149902345	178.2047424316406	-314.9126281738282	67.9109344482422	118.5966720581055	-362.0462646484376	78.71434020996095	80.3833312988281	-255.7629547119142	874.4409790039065	452.7848815917969	-231.5635681152345	462.6361389160157	375.1216430664063	-253.6197662353516	459.4392089843751	238.9996643066407	-255.1716308593751	402.8206481933595	376.3030090332031	-200.8426055908204	392.7672119140626	314.0900573730469	-283.8870239257814	65.3772659301758	307.0248107910156	-264.5507507324219	80.27766418457033	219.6580047607422	-328.8245849609376	20.63935470581055	251.4333038330078	-131.3608703613282	22.50540542602539	227.8109588623047	-122.003158569336	37.54076004028321	284.1441650390626	-168.3118438720704	21.58548355102539	338.7935180664063	-326.1472778320314	1483.42626953125	257.4876708984375	-391.6202087402345	1268.258422851563	260.7652282714844	-164.1380004882813	1169.55517578125	230.709457397461	-202.5719604492188	1397.949584960938	242.1827087402344	-408.0351562500001	1307.282592773438	182.4527893066406	-367.9356689453126	1434.603881835938	147.2682037353515	-338.5197143554688	1427.369995117188	80.23719787597653	-290.5967712402344	1441.612915039063	65.46004486083982	-314.3563537597657	1105.849365234375	18.39194869995114	-332.8089904785157	1103.781494140625	84.81471252441403	-333.9013671875001	1081.359130859375	58.2646560668945	-190.6547546386719	880.8660278320315	11.60828495025633	-251.6356964111329	880.7519531250002	-28.72631263732914	-162.1922760009766	794.0059814453127	3.093044519424419	-257.8431701660157	791.226745605469	-25.32843971252445	-393.5791931152345	1301.061279296875	338.7847290039062	-345.4691162109376	1431.399536132813	365.2573852539062	-294.7507629394532	1430.339111328125	421.7223815917969	-255.7254028320314	1445.534545898438	422.2904663085938	-278.4352416992189	1118.180541992188	504.7177734375001	-317.2920532226564	1109.305297851563	438.6475830078126	-316.2688293457032	1087.815063476563	477.5140075683594	-150.723617553711	895.5320434570315	487.2366027832032	-207.5032501220704	889.7182617187502	531.2270507812501	-113.2530975341798	807.8123779296877	506.6018981933595	-213.1466674804689	803.7191162109377	523.8663330078126	
88	0.87	-155.9625091552735	940.6184692382815	125.691032409668	-357.9346313476563	996.7851562500002	213.8253173828125	-355.1031494140626	995.8098144531252	310.3879089355469	-143.386199951172	952.7272949218752	359.0162658691407	-242.9494171142579	874.3227539062502	52.29695892333983	-109.0393371582032	486.8020629882814	78.37646484375	-96.43128967285162	465.4775390625001	213.116928100586	-151.5235595703125	446.3003234863282	78.45526123046875	-100.1677322387696	403.5664978027345	116.833366394043	-385.2663879394532	194.5812377929688	124.8661346435547	-327.3423767089844	180.0401000976563	201.4310913085938	-433.7584228515626	176.1570739746094	178.9755401611328	-285.5275268554688	60.31929016113283	177.62109375	-275.3656311035157	65.5955276489258	117.9797973632812	-323.0843200683594	74.34800720214845	80.1809158325195	-246.388885498047	873.9434204101565	453.1940612792969	-226.9403076171876	462.2357788085939	375.3086242675782	-248.2857208251954	459.6430053710939	239.2029418945313	-251.409149169922	402.6557617187501	376.3191833496094	-196.8210754394532	391.9742431640626	314.4777221679688	-283.6827087402345	65.52854919433595	306.9474182128906	-264.0161743164063	80.42378997802736	219.5934600830078	-328.8024902343751	20.9057846069336	251.3984069824219	-131.2627258300782	22.4342041015625	227.8764038085938	-121.7470779418946	37.36202621459962	284.2456359863282	-168.3271942138672	21.47137832641602	339.0263366699219	-314.5365295410157	1483.392333984375	258.0634460449219	-380.0161132812501	1268.22607421875	261.9591674804688	-152.664779663086	1169.603515625	231.4768981933594	-191.0335235595704	1397.8125	242.6545715332032	-396.4996032714845	1307.062133789063	183.7053985595703	-356.4251403808594	1434.313110351563	148.1389465332031	-327.1163635253907	1427.03955078125	81.047248840332	-279.2170715332032	1441.144775390625	66.07218170166014	-306.7000427246094	1106.322265625	19.13755607604977	-323.9215087890626	1103.868041992188	86.10899353027341	-325.8419189453126	1082.03271484375	59.43955612182614	-190.9792175292969	877.0646972656252	8.69522190093992	-252.8275146484376	879.700134277344	-30.34041023254398	-166.4978332519532	788.9011230468752	-1.564755201339743	-262.6635437011719	790.735290527344	-28.10588073730473	-381.5368041992189	1301.345092773438	340.3899841308594	-333.5137023925782	1431.548217773438	366.2497863769531	-282.4686584472657	1430.722778320313	422.4794311523438	-243.5719604492189	1446.0986328125	422.6002502441407	-261.0661010742189	1118.935424804688	507.3353881835938	-300.6606445312501	1109.079345703125	441.7828674316407	-298.7355346679689	1087.58251953125	480.8220214843751	-128.1806030273438	899.4259033203127	487.7130432128907	-183.8729858398438	892.4138793945315	532.8011474609376	-88.28493499755866	812.6340942382815	506.5436096191407	-187.6513671875001	806.2482910156252	525.8724365234376	
89	0.88	-143.1083068847657	941.0808105468752	127.7671890258789	-346.0624084472657	996.4281005859377	213.3573303222657	-343.850311279297	995.3890380859377	310.0244750976562	-132.5966186523438	952.204284667969	360.8146972656251	-228.5703582763672	874.6994628906252	52.64156341552733	-88.94817352294925	489.2891845703126	80.17368316650391	-74.95781707763676	469.0459899902345	214.5981750488282	-130.4769134521485	447.3358764648439	80.48664093017578	-77.06909942626956	406.570526123047	118.4246215820313	-352.3973999023438	184.6995086669922	126.9152374267578	-293.5654296875001	172.4647064208985	203.2057189941407	-399.9595947265626	163.1846160888672	181.0879516601562	-244.9881134033204	55.88657760620119	177.4598693847656	-235.4241333007813	62.963436126709	117.8370208740234	-283.5945434570313	69.44747924804689	80.38189697265624	-236.9686584472657	873.2805175781252	453.6019592285157	-222.0374908447267	461.7641601562501	375.3269958496094	-242.6366271972657	459.7786254882814	239.2409210205078	-247.3988800048829	402.4407043457032	376.1761474609375	-192.5495147705079	391.1076965332032	314.7209777832032	-283.4401245117189	65.6975784301758	306.8350830078125	-263.4778442382813	80.54135131835939	219.4786529541016	-328.7605895996095	21.16124534606934	251.3397674560547	-131.137191772461	22.36557769775391	227.9239654541016	-121.4563674926758	37.19381332397462	284.3319396972657	-168.3137664794922	21.37626457214356	339.2377624511719	-302.903045654297	1483.173950195313	258.6195678710938	-368.3948669433595	1268.018188476563	263.0470581054688	-141.1244354248047	1169.608276367188	232.3943634033203	-179.4630889892579	1397.540283203125	243.1642456054688	-384.9092407226564	1306.678833007813	184.8594970703125	-344.8319702148438	1433.85205078125	148.9491729736328	-315.6080932617188	1426.530517578125	81.81707763671872	-267.7329101562501	1440.490966796875	66.6566696166992	-299.3259582519532	1106.652099609375	19.82327651977536	-315.2596130371094	1103.807739257813	87.3252258300781	-318.0211486816407	1082.545043945313	60.55159759521482	-191.2751617431641	873.654479980469	5.807422637939431	-253.8889312744141	878.8831176757815	-31.83689880371098	-170.6642456054688	784.3879394531252	-6.138134479522728	-267.1772155761719	790.638122558594	-30.64531517028813	-369.494110107422	1301.431640625	341.8658142089844	-321.581268310547	1431.504272460938	367.2049255371094	-270.2362060546876	1430.8974609375	423.2273559570313	-231.4678649902345	1446.455078125	422.9303588867189	-243.7520294189454	1119.59423828125	509.9097595214844	-284.0127563476564	1108.708618164063	444.8498229980469	-281.1974182128907	1087.245483398438	484.0509338378907	-105.7754669189454	903.3513183593752	488.1629028320314	-160.3916168212891	895.149597167969	534.2841186523439	-63.53605651855477	817.496276855469	506.3390502929689	-162.2942504882813	808.8799438476565	527.6801147460939	
90	0.89	-130.2160034179688	941.3103637695315	129.8603515625	-334.1739807128907	995.841979980469	212.7808380126953	-332.6109619140626	994.7075805664065	309.5510864257812	-121.858871459961	951.4230957031252	362.6248474121094	-213.9760742187501	874.9063720703127	52.93840026855467	-69.43288421630862	491.4588317871095	82.10340881347656	-54.28345108032231	472.2596740722657	216.185043334961	-109.8413772583008	447.9245605468751	82.55032348632812	-54.599235534668	409.3158569335939	120.1396713256836	-318.7236938476563	174.1718292236328	128.7575988769531	-259.1728210449219	164.5491943359375	204.8771057128907	-365.0940246582032	149.758056640625	182.9587249755859	-203.9226837158204	51.61342620849611	177.6789703369141	-195.0823974609376	60.14356994628908	118.1134719848633	-243.5520629882813	64.16848754882814	80.93019866943358	-227.469696044922	872.4703369140627	453.9989013671876	-216.8481597900392	461.2146301269532	375.1891479492188	-236.6826324462891	459.8317871093751	239.124252319336	-243.124725341797	402.1699829101564	375.8863525390625	-188.0328979492188	390.1593627929689	314.8195495605469	-283.166229248047	65.88066864013673	306.6915588378906	-262.9552612304688	80.63111114501955	219.3062286376953	-328.7026672363282	21.40538787841797	251.2561340332032	-130.988021850586	22.29710960388184	227.9571075439453	-121.1413574218751	37.03083038330079	284.4074401855469	-168.2739410400391	21.28964996337891	339.4242248535157	-291.2278137207032	1482.770141601563	259.1661071777344	-356.745330810547	1267.635498046875	264.0293273925781	-129.5060729980469	1169.53955078125	233.4467163085938	-167.8442840576172	1397.1279296875	243.71484375	-373.2627563476563	1306.131591796875	185.9358520507812	-333.1568603515626	1433.223510742188	149.7180328369141	-304.0093688964844	1425.841064453125	82.56697845458982	-256.1623229980469	1439.653686523438	67.21890258789061	-292.2073364257813	1106.837280273438	20.43104171752926	-306.8425292968751	1103.600463867188	88.42511749267575	-310.4383544921876	1082.89697265625	61.56607437133787	-191.4735870361328	870.607360839844	2.985177278518654	-254.7368927001954	878.2620849609377	-33.22200012207035	-174.5758972167969	780.4367675781252	-10.54038238525393	-271.2812194824219	790.8616333007815	-32.93262481689457	-357.450408935547	1301.317260742188	343.2171936035156	-309.6531982421876	1431.266723632813	368.1332397460938	-258.0334472656251	1430.853881835938	423.9768066406251	-219.3858337402345	1446.588134765625	423.293182373047	-226.5183563232423	1120.146362304688	512.4434204101564	-267.3872985839845	1108.187622070313	447.8512878417969	-263.6890869140626	1086.79345703125	487.1990051269532	-83.54577636718757	907.288269042969	488.5877075195314	-137.1057891845704	897.8961181640627	535.6680297851564	-39.02703475952156	822.3945922851565	506.0142211914064	-137.1082611083985	811.581726074219	529.2813720703126	
